<mxfile host="app.diagrams.net" agent="Mozilla/5.0 (Windows NT 10.0; Win64; x64) AppleWebKit/537.36 (KHTML, like Gecko) Chrome/131.0.0.0 Safari/537.36" version="24.8.6">
  <diagram id="C5RBs43oDa-KdzZeNtuy" name="Page-1">
    <mxGraphModel dx="1947" dy="508" grid="1" gridSize="10" guides="1" tooltips="1" connect="1" arrows="1" fold="1" page="1" pageScale="1" pageWidth="827" pageHeight="1169" math="0" shadow="0">
      <root>
        <mxCell id="WIyWlLk6GJQsqaUBKTNV-0" />
        <mxCell id="WIyWlLk6GJQsqaUBKTNV-1" parent="WIyWlLk6GJQsqaUBKTNV-0" />
        <mxCell id="O-Z6JVknIoz6VIN15eSO-2" style="edgeStyle=orthogonalEdgeStyle;rounded=0;orthogonalLoop=1;jettySize=auto;html=1;entryX=0.5;entryY=0;entryDx=0;entryDy=0;" parent="WIyWlLk6GJQsqaUBKTNV-1" source="O-Z6JVknIoz6VIN15eSO-0" target="O-Z6JVknIoz6VIN15eSO-1" edge="1">
          <mxGeometry relative="1" as="geometry" />
        </mxCell>
        <mxCell id="O-Z6JVknIoz6VIN15eSO-0" value="START" style="ellipse;whiteSpace=wrap;html=1;" parent="WIyWlLk6GJQsqaUBKTNV-1" vertex="1">
          <mxGeometry x="340" y="40" width="120" height="80" as="geometry" />
        </mxCell>
        <mxCell id="O-Z6JVknIoz6VIN15eSO-4" value="" style="edgeStyle=orthogonalEdgeStyle;rounded=0;orthogonalLoop=1;jettySize=auto;html=1;" parent="WIyWlLk6GJQsqaUBKTNV-1" source="O-Z6JVknIoz6VIN15eSO-1" target="O-Z6JVknIoz6VIN15eSO-3" edge="1">
          <mxGeometry relative="1" as="geometry" />
        </mxCell>
        <mxCell id="O-Z6JVknIoz6VIN15eSO-1" value="a,b,c,x1,x2,x,delta" style="rounded=0;whiteSpace=wrap;html=1;" parent="WIyWlLk6GJQsqaUBKTNV-1" vertex="1">
          <mxGeometry x="340" y="160" width="120" height="60" as="geometry" />
        </mxCell>
        <mxCell id="O-Z6JVknIoz6VIN15eSO-6" value="" style="edgeStyle=orthogonalEdgeStyle;rounded=0;orthogonalLoop=1;jettySize=auto;html=1;" parent="WIyWlLk6GJQsqaUBKTNV-1" source="O-Z6JVknIoz6VIN15eSO-3" target="O-Z6JVknIoz6VIN15eSO-5" edge="1">
          <mxGeometry relative="1" as="geometry" />
        </mxCell>
        <mxCell id="O-Z6JVknIoz6VIN15eSO-3" value="a,b,c" style="shape=parallelogram;perimeter=parallelogramPerimeter;whiteSpace=wrap;html=1;fixedSize=1;rounded=0;" parent="WIyWlLk6GJQsqaUBKTNV-1" vertex="1">
          <mxGeometry x="340" y="280" width="120" height="60" as="geometry" />
        </mxCell>
        <mxCell id="O-Z6JVknIoz6VIN15eSO-11" value="" style="edgeStyle=orthogonalEdgeStyle;rounded=0;orthogonalLoop=1;jettySize=auto;html=1;" parent="WIyWlLk6GJQsqaUBKTNV-1" source="O-Z6JVknIoz6VIN15eSO-5" target="O-Z6JVknIoz6VIN15eSO-10" edge="1">
          <mxGeometry relative="1" as="geometry" />
        </mxCell>
        <mxCell id="O-Z6JVknIoz6VIN15eSO-37" value="" style="edgeStyle=orthogonalEdgeStyle;rounded=0;orthogonalLoop=1;jettySize=auto;html=1;" parent="WIyWlLk6GJQsqaUBKTNV-1" source="O-Z6JVknIoz6VIN15eSO-5" target="O-Z6JVknIoz6VIN15eSO-36" edge="1">
          <mxGeometry relative="1" as="geometry" />
        </mxCell>
        <mxCell id="O-Z6JVknIoz6VIN15eSO-5" value="a=0?" style="rhombus;whiteSpace=wrap;html=1;rounded=0;" parent="WIyWlLk6GJQsqaUBKTNV-1" vertex="1">
          <mxGeometry x="360" y="410" width="80" height="80" as="geometry" />
        </mxCell>
        <mxCell id="O-Z6JVknIoz6VIN15eSO-18" value="" style="edgeStyle=orthogonalEdgeStyle;rounded=0;orthogonalLoop=1;jettySize=auto;html=1;" parent="WIyWlLk6GJQsqaUBKTNV-1" source="O-Z6JVknIoz6VIN15eSO-10" target="O-Z6JVknIoz6VIN15eSO-17" edge="1">
          <mxGeometry relative="1" as="geometry" />
        </mxCell>
        <mxCell id="O-Z6JVknIoz6VIN15eSO-29" value="" style="edgeStyle=orthogonalEdgeStyle;rounded=0;orthogonalLoop=1;jettySize=auto;html=1;" parent="WIyWlLk6GJQsqaUBKTNV-1" source="O-Z6JVknIoz6VIN15eSO-10" target="O-Z6JVknIoz6VIN15eSO-28" edge="1">
          <mxGeometry relative="1" as="geometry" />
        </mxCell>
        <mxCell id="O-Z6JVknIoz6VIN15eSO-10" value="b=0" style="rhombus;whiteSpace=wrap;html=1;rounded=0;" parent="WIyWlLk6GJQsqaUBKTNV-1" vertex="1">
          <mxGeometry x="480" y="545" width="80" height="80" as="geometry" />
        </mxCell>
        <mxCell id="O-Z6JVknIoz6VIN15eSO-14" value="true" style="text;html=1;align=center;verticalAlign=middle;resizable=0;points=[];autosize=1;strokeColor=none;fillColor=none;" parent="WIyWlLk6GJQsqaUBKTNV-1" vertex="1">
          <mxGeometry x="450" y="420" width="40" height="30" as="geometry" />
        </mxCell>
        <mxCell id="O-Z6JVknIoz6VIN15eSO-21" value="" style="edgeStyle=orthogonalEdgeStyle;rounded=0;orthogonalLoop=1;jettySize=auto;html=1;" parent="WIyWlLk6GJQsqaUBKTNV-1" source="O-Z6JVknIoz6VIN15eSO-17" target="O-Z6JVknIoz6VIN15eSO-20" edge="1">
          <mxGeometry relative="1" as="geometry" />
        </mxCell>
        <mxCell id="O-Z6JVknIoz6VIN15eSO-23" value="" style="edgeStyle=orthogonalEdgeStyle;rounded=0;orthogonalLoop=1;jettySize=auto;html=1;" parent="WIyWlLk6GJQsqaUBKTNV-1" source="O-Z6JVknIoz6VIN15eSO-17" target="O-Z6JVknIoz6VIN15eSO-22" edge="1">
          <mxGeometry relative="1" as="geometry" />
        </mxCell>
        <mxCell id="O-Z6JVknIoz6VIN15eSO-17" value="c=0" style="rhombus;whiteSpace=wrap;html=1;rounded=0;" parent="WIyWlLk6GJQsqaUBKTNV-1" vertex="1">
          <mxGeometry x="600" y="650" width="80" height="80" as="geometry" />
        </mxCell>
        <mxCell id="O-Z6JVknIoz6VIN15eSO-19" value="true" style="text;html=1;align=center;verticalAlign=middle;resizable=0;points=[];autosize=1;strokeColor=none;fillColor=none;" parent="WIyWlLk6GJQsqaUBKTNV-1" vertex="1">
          <mxGeometry x="560" y="558" width="40" height="30" as="geometry" />
        </mxCell>
        <mxCell id="O-Z6JVknIoz6VIN15eSO-20" value="Phương trình có&lt;div&gt;vô số nghiệm&lt;/div&gt;" style="shape=parallelogram;perimeter=parallelogramPerimeter;whiteSpace=wrap;html=1;fixedSize=1;rounded=0;" parent="WIyWlLk6GJQsqaUBKTNV-1" vertex="1">
          <mxGeometry x="690" y="750" width="120" height="60" as="geometry" />
        </mxCell>
        <mxCell id="O-Z6JVknIoz6VIN15eSO-22" value="Phương trình&lt;div&gt;vô nghiệm&lt;/div&gt;" style="shape=parallelogram;perimeter=parallelogramPerimeter;whiteSpace=wrap;html=1;fixedSize=1;rounded=0;" parent="WIyWlLk6GJQsqaUBKTNV-1" vertex="1">
          <mxGeometry x="470" y="750" width="120" height="60" as="geometry" />
        </mxCell>
        <mxCell id="O-Z6JVknIoz6VIN15eSO-24" value="true" style="text;html=1;align=center;verticalAlign=middle;resizable=0;points=[];autosize=1;strokeColor=none;fillColor=none;" parent="WIyWlLk6GJQsqaUBKTNV-1" vertex="1">
          <mxGeometry x="690" y="660" width="40" height="30" as="geometry" />
        </mxCell>
        <mxCell id="O-Z6JVknIoz6VIN15eSO-25" value="false" style="text;html=1;align=center;verticalAlign=middle;resizable=0;points=[];autosize=1;strokeColor=none;fillColor=none;" parent="WIyWlLk6GJQsqaUBKTNV-1" vertex="1">
          <mxGeometry x="545" y="658" width="50" height="30" as="geometry" />
        </mxCell>
        <mxCell id="O-Z6JVknIoz6VIN15eSO-33" value="" style="edgeStyle=orthogonalEdgeStyle;rounded=0;orthogonalLoop=1;jettySize=auto;html=1;" parent="WIyWlLk6GJQsqaUBKTNV-1" source="O-Z6JVknIoz6VIN15eSO-28" target="O-Z6JVknIoz6VIN15eSO-32" edge="1">
          <mxGeometry relative="1" as="geometry" />
        </mxCell>
        <mxCell id="O-Z6JVknIoz6VIN15eSO-28" value="x=-c/b" style="whiteSpace=wrap;html=1;rounded=0;" parent="WIyWlLk6GJQsqaUBKTNV-1" vertex="1">
          <mxGeometry x="310" y="750" width="120" height="60" as="geometry" />
        </mxCell>
        <mxCell id="O-Z6JVknIoz6VIN15eSO-30" value="false" style="text;html=1;align=center;verticalAlign=middle;resizable=0;points=[];autosize=1;strokeColor=none;fillColor=none;" parent="WIyWlLk6GJQsqaUBKTNV-1" vertex="1">
          <mxGeometry x="410" y="558" width="50" height="30" as="geometry" />
        </mxCell>
        <mxCell id="O-Z6JVknIoz6VIN15eSO-60" style="edgeStyle=orthogonalEdgeStyle;rounded=0;orthogonalLoop=1;jettySize=auto;html=1;entryX=0.5;entryY=0;entryDx=0;entryDy=0;" parent="WIyWlLk6GJQsqaUBKTNV-1" source="O-Z6JVknIoz6VIN15eSO-32" target="O-Z6JVknIoz6VIN15eSO-58" edge="1">
          <mxGeometry relative="1" as="geometry" />
        </mxCell>
        <mxCell id="O-Z6JVknIoz6VIN15eSO-32" value="x" style="shape=parallelogram;perimeter=parallelogramPerimeter;whiteSpace=wrap;html=1;fixedSize=1;rounded=0;" parent="WIyWlLk6GJQsqaUBKTNV-1" vertex="1">
          <mxGeometry x="310" y="890" width="120" height="60" as="geometry" />
        </mxCell>
        <mxCell id="O-Z6JVknIoz6VIN15eSO-40" value="" style="edgeStyle=orthogonalEdgeStyle;rounded=0;orthogonalLoop=1;jettySize=auto;html=1;" parent="WIyWlLk6GJQsqaUBKTNV-1" source="O-Z6JVknIoz6VIN15eSO-36" target="O-Z6JVknIoz6VIN15eSO-39" edge="1">
          <mxGeometry relative="1" as="geometry" />
        </mxCell>
        <mxCell id="O-Z6JVknIoz6VIN15eSO-36" value="delta=b^2-4ac" style="whiteSpace=wrap;html=1;rounded=0;" parent="WIyWlLk6GJQsqaUBKTNV-1" vertex="1">
          <mxGeometry x="-180" y="525" width="120" height="60" as="geometry" />
        </mxCell>
        <mxCell id="O-Z6JVknIoz6VIN15eSO-38" value="false" style="text;html=1;align=center;verticalAlign=middle;resizable=0;points=[];autosize=1;strokeColor=none;fillColor=none;" parent="WIyWlLk6GJQsqaUBKTNV-1" vertex="1">
          <mxGeometry x="225" y="420" width="50" height="30" as="geometry" />
        </mxCell>
        <mxCell id="O-Z6JVknIoz6VIN15eSO-42" value="" style="edgeStyle=orthogonalEdgeStyle;rounded=0;orthogonalLoop=1;jettySize=auto;html=1;" parent="WIyWlLk6GJQsqaUBKTNV-1" source="O-Z6JVknIoz6VIN15eSO-39" target="O-Z6JVknIoz6VIN15eSO-41" edge="1">
          <mxGeometry relative="1" as="geometry" />
        </mxCell>
        <mxCell id="O-Z6JVknIoz6VIN15eSO-45" value="" style="edgeStyle=orthogonalEdgeStyle;rounded=0;orthogonalLoop=1;jettySize=auto;html=1;" parent="WIyWlLk6GJQsqaUBKTNV-1" source="O-Z6JVknIoz6VIN15eSO-39" target="O-Z6JVknIoz6VIN15eSO-44" edge="1">
          <mxGeometry relative="1" as="geometry" />
        </mxCell>
        <mxCell id="O-Z6JVknIoz6VIN15eSO-39" value="delta&amp;lt;0" style="rhombus;whiteSpace=wrap;html=1;rounded=0;" parent="WIyWlLk6GJQsqaUBKTNV-1" vertex="1">
          <mxGeometry x="-160" y="688" width="80" height="80" as="geometry" />
        </mxCell>
        <mxCell id="O-Z6JVknIoz6VIN15eSO-41" value="Phương trình&lt;div&gt;vô nghiệm&lt;/div&gt;" style="shape=parallelogram;perimeter=parallelogramPerimeter;whiteSpace=wrap;html=1;fixedSize=1;rounded=0;" parent="WIyWlLk6GJQsqaUBKTNV-1" vertex="1">
          <mxGeometry x="-30" y="830" width="120" height="60" as="geometry" />
        </mxCell>
        <mxCell id="O-Z6JVknIoz6VIN15eSO-43" value="true" style="text;html=1;align=center;verticalAlign=middle;resizable=0;points=[];autosize=1;strokeColor=none;fillColor=none;" parent="WIyWlLk6GJQsqaUBKTNV-1" vertex="1">
          <mxGeometry x="-60" y="698" width="40" height="30" as="geometry" />
        </mxCell>
        <mxCell id="O-Z6JVknIoz6VIN15eSO-48" value="" style="edgeStyle=orthogonalEdgeStyle;rounded=0;orthogonalLoop=1;jettySize=auto;html=1;" parent="WIyWlLk6GJQsqaUBKTNV-1" source="O-Z6JVknIoz6VIN15eSO-44" target="O-Z6JVknIoz6VIN15eSO-47" edge="1">
          <mxGeometry relative="1" as="geometry" />
        </mxCell>
        <mxCell id="O-Z6JVknIoz6VIN15eSO-53" value="" style="edgeStyle=orthogonalEdgeStyle;rounded=0;orthogonalLoop=1;jettySize=auto;html=1;" parent="WIyWlLk6GJQsqaUBKTNV-1" source="O-Z6JVknIoz6VIN15eSO-44" target="O-Z6JVknIoz6VIN15eSO-52" edge="1">
          <mxGeometry relative="1" as="geometry" />
        </mxCell>
        <mxCell id="O-Z6JVknIoz6VIN15eSO-44" value="delta=0" style="rhombus;whiteSpace=wrap;html=1;rounded=0;" parent="WIyWlLk6GJQsqaUBKTNV-1" vertex="1">
          <mxGeometry x="-360" y="810" width="80" height="80" as="geometry" />
        </mxCell>
        <mxCell id="O-Z6JVknIoz6VIN15eSO-46" value="false" style="text;html=1;align=center;verticalAlign=middle;resizable=0;points=[];autosize=1;strokeColor=none;fillColor=none;" parent="WIyWlLk6GJQsqaUBKTNV-1" vertex="1">
          <mxGeometry x="-230" y="698" width="50" height="30" as="geometry" />
        </mxCell>
        <mxCell id="O-Z6JVknIoz6VIN15eSO-50" value="" style="edgeStyle=orthogonalEdgeStyle;rounded=0;orthogonalLoop=1;jettySize=auto;html=1;" parent="WIyWlLk6GJQsqaUBKTNV-1" source="O-Z6JVknIoz6VIN15eSO-47" target="O-Z6JVknIoz6VIN15eSO-49" edge="1">
          <mxGeometry relative="1" as="geometry" />
        </mxCell>
        <mxCell id="O-Z6JVknIoz6VIN15eSO-47" value="x1=x2=-b/2a" style="whiteSpace=wrap;html=1;rounded=0;" parent="WIyWlLk6GJQsqaUBKTNV-1" vertex="1">
          <mxGeometry x="-265" y="940" width="120" height="60" as="geometry" />
        </mxCell>
        <mxCell id="O-Z6JVknIoz6VIN15eSO-59" style="edgeStyle=orthogonalEdgeStyle;rounded=0;orthogonalLoop=1;jettySize=auto;html=1;" parent="WIyWlLk6GJQsqaUBKTNV-1" source="O-Z6JVknIoz6VIN15eSO-49" target="O-Z6JVknIoz6VIN15eSO-58" edge="1">
          <mxGeometry relative="1" as="geometry" />
        </mxCell>
        <mxCell id="O-Z6JVknIoz6VIN15eSO-49" value="x1,x2" style="shape=parallelogram;perimeter=parallelogramPerimeter;whiteSpace=wrap;html=1;fixedSize=1;rounded=0;" parent="WIyWlLk6GJQsqaUBKTNV-1" vertex="1">
          <mxGeometry x="-400" y="1100" width="120" height="60" as="geometry" />
        </mxCell>
        <mxCell id="O-Z6JVknIoz6VIN15eSO-51" value="true" style="text;html=1;align=center;verticalAlign=middle;resizable=0;points=[];autosize=1;strokeColor=none;fillColor=none;" parent="WIyWlLk6GJQsqaUBKTNV-1" vertex="1">
          <mxGeometry x="-270" y="818" width="40" height="30" as="geometry" />
        </mxCell>
        <mxCell id="O-Z6JVknIoz6VIN15eSO-57" style="edgeStyle=orthogonalEdgeStyle;rounded=0;orthogonalLoop=1;jettySize=auto;html=1;entryX=0.5;entryY=0;entryDx=0;entryDy=0;" parent="WIyWlLk6GJQsqaUBKTNV-1" source="O-Z6JVknIoz6VIN15eSO-52" target="O-Z6JVknIoz6VIN15eSO-49" edge="1">
          <mxGeometry relative="1" as="geometry" />
        </mxCell>
        <mxCell id="O-Z6JVknIoz6VIN15eSO-52" value="x1=-b+√delta / 2a&lt;div&gt;x2=-b-√delta / 2a&lt;/div&gt;" style="whiteSpace=wrap;html=1;rounded=0;" parent="WIyWlLk6GJQsqaUBKTNV-1" vertex="1">
          <mxGeometry x="-533" y="940" width="120" height="60" as="geometry" />
        </mxCell>
        <mxCell id="O-Z6JVknIoz6VIN15eSO-54" value="false" style="text;html=1;align=center;verticalAlign=middle;resizable=0;points=[];autosize=1;strokeColor=none;fillColor=none;" parent="WIyWlLk6GJQsqaUBKTNV-1" vertex="1">
          <mxGeometry x="-438" y="818" width="50" height="30" as="geometry" />
        </mxCell>
        <mxCell id="O-Z6JVknIoz6VIN15eSO-58" value="END" style="ellipse;whiteSpace=wrap;html=1;" parent="WIyWlLk6GJQsqaUBKTNV-1" vertex="1">
          <mxGeometry x="-20" y="1190" width="120" height="80" as="geometry" />
        </mxCell>
      </root>
    </mxGraphModel>
  </diagram>
</mxfile>
